<svg xmlns="http://www.w3.org/2000/svg" viewBox="0 0 96 96" fill="white">
  <!-- Upright/double bass: pear-shaped body, angled like reference cello/violin -->
  <g transform="translate(48,48) rotate(-20) translate(-48,-48)">
    <!-- Scroll/headstock -->
    <circle cx="48" cy="5" r="5"/>
    <!-- Neck -->
    <rect x="45" y="5" width="6" height="20"/>
    <!-- Body: wide pear shape with f-hole cutouts -->
    <path fill-rule="evenodd" d="
      M45 24 C36 24 24 32 22 44 C20 54 24 62 30 68
      C26 72 22 78 24 86 C26 92 34 96 48 96
      C62 96 70 92 72 86 C74 78 70 72 66 68
      C72 62 76 54 74 44 C72 32 60 24 51 24 Z
      M36 52 C34 54 34 60 36 62 L40 58 Z
      M60 52 C62 54 62 60 60 62 L56 58 Z
    "/>
  </g>
</svg>
