<svg xmlns="http://www.w3.org/2000/svg" viewBox="0 0 96 96" fill="white">
  <!-- Upright bass (double bass): pear-shaped body + scroll headstock -->
  <!-- Scroll headstock -->
  <circle cx="48" cy="5" r="5"/>
  <rect x="45" y="5" width="6" height="18"/>
  <!-- Body: wide pear shape (no cutaways) with f-holes implied -->
  <path d="
    M 42 22 C 32 22 22 30 20 42 C 18 52 22 60 28 66
    C 22 70 18 78 20 86 C 22 92 30 96 38 95
    C 44 96 52 96 58 95 C 66 96 74 92 76 86
    C 78 78 74 70 68 66 C 74 60 78 52 76 42
    C 74 30 64 22 54 22 Z
  "/>
</svg>
