<svg xmlns="http://www.w3.org/2000/svg" viewBox="0 0 96 96" fill="white">
  <!-- Two congas side by side: tapered tall drums -->
  <!-- Left conga -->
  <path d="M 8 20 C 8 16 18 14 24 14 C 30 14 38 16 38 20 L 34 82 C 34 86 30 88 24 88 C 18 88 14 86 14 82 Z"/>
  <ellipse cx="24" cy="20" rx="14" ry="5"/>
  <!-- Right conga (slightly taller) -->
  <path d="M 52 16 C 52 12 62 10 70 10 C 78 10 86 12 86 16 L 84 80 C 84 84 78 88 70 88 C 62 88 56 84 56 80 Z"/>
  <ellipse cx="70" cy="16" rx="16" ry="5"/>
</svg>
