<svg xmlns="http://www.w3.org/2000/svg" viewBox="0 0 96 96" fill="white">
  <!-- FOH mixing desk: trapezoid top-down + fader strips (matches reference mixer style) -->
  <!-- Console body -->
  <path d="M 8 88 L 88 88 L 80 12 L 16 12 Z"/>
  <!-- Fader channel strips as evenodd cutouts -->
  <path fill-rule="evenodd" d="
    M 8 88 L 88 88 L 80 12 L 16 12 Z
    M 20 20 L 26 20 L 22 72 L 16 72 Z
    M 30 20 L 36 20 L 32 72 L 26 72 Z
    M 40 18 L 46 18 L 44 72 L 38 72 Z
    M 50 18 L 56 18 L 54 72 L 48 72 Z
    M 60 18 L 66 18 L 64 72 L 58 72 Z
    M 70 20 L 76 20 L 74 72 L 68 72 Z
  "/>
</svg>
