<svg xmlns="http://www.w3.org/2000/svg" viewBox="0 0 96 96" fill="white">
  <!-- Electronic drum kit: frame + 3x3 pad grid, single color with evenodd cutouts -->
  <path fill-rule="evenodd" d="
    M 4 16 L 92 16 L 92 80 L 4 80 Z
    M 10 22 L 34 22 L 34 44 L 10 44 Z
    M 38 22 L 58 22 L 58 44 L 38 44 Z
    M 62 22 L 86 22 L 86 44 L 62 44 Z
    M 10 50 L 34 50 L 34 72 L 10 72 Z
    M 38 50 L 58 50 L 58 72 L 38 72 Z
    M 62 50 L 86 50 L 86 72 L 62 72 Z
  "/>
  <!-- Pedal area -->
  <rect x="16" y="82" width="20" height="10" rx="4"/>
  <rect x="60" y="82" width="20" height="10" rx="4"/>
</svg>
