<svg xmlns="http://www.w3.org/2000/svg" viewBox="0 0 96 96" fill="white">
  <!-- Classical guitar: wider rounder body, angled -->
  <g transform="translate(48,48) rotate(-30) translate(-48,-48)">
    <rect x="38" y="3" width="20" height="11" rx="3"/>
    <rect x="42" y="14" width="12" height="22"/>
    <path fill-rule="evenodd" d="
      M42 36 C32 36 20 42 18 52 C14 62 18 70 24 76
      C22 78 20 82 20 86 C20 92 32 96 48 96
      C64 96 76 92 76 86 C76 82 74 78 72 76
      C78 70 82 62 78 52 C76 42 64 36 54 36 Z
      M48 46 a8 8 0 1 0 0.01 0Z
    "/>
  </g>
</svg>
