<svg xmlns="http://www.w3.org/2000/svg" viewBox="0 0 96 96" fill="white">
  <!-- Acoustic guitar silhouette, rotated ~30° CCW, soundhole as evenodd cutout -->
  <g transform="translate(48,48) rotate(-30) translate(-48,-48)">
    <!-- Headstock -->
    <rect x="38" y="3" width="20" height="11" rx="3"/>
    <!-- Neck -->
    <rect x="42" y="14" width="12" height="22"/>
    <!-- Figure-8 body with soundhole cutout using evenodd -->
    <path fill-rule="evenodd" d="
      M42 36 C34 36 24 40 20 48 C16 56 18 64 24 70
      C22 72 20 76 20 80 C20 88 32 94 48 94
      C64 94 76 88 76 80 C76 76 74 72 72 70
      C78 64 80 56 76 48 C72 40 62 36 54 36 Z
      M48 44 a7 7 0 1 0 0.01 0Z
    "/>
  </g>
</svg>
