<svg xmlns="http://www.w3.org/2000/svg" viewBox="0 0 96 96" fill="white">
  <!-- Stratocaster silhouette, rotated ~30° CCW for diagonal reference style -->
  <g transform="translate(48,48) rotate(-30) translate(-48,-48)">
    <!-- Headstock -->
    <rect x="38" y="3" width="20" height="11" rx="3"/>
    <!-- Neck -->
    <rect x="42" y="14" width="12" height="25"/>
    <!-- Upper bass (left) horn -->
    <path d="M42 39 C36 37 26 35 20 29 C14 23 16 15 23 15 C29 15 34 21 38 29 C40 33 41 37 42 39Z"/>
    <!-- Upper treble (right) horn -->
    <path d="M54 39 C60 37 70 35 76 29 C82 23 80 15 73 15 C67 15 62 21 58 29 C56 33 55 37 54 39Z"/>
    <!-- Main body (lower bout) -->
    <path d="M42 39 C28 41 16 51 16 65 C16 79 30 89 48 89 C66 89 80 79 80 65 C80 51 68 41 54 39Z"/>
  </g>
</svg>
