<svg xmlns="http://www.w3.org/2000/svg" viewBox="0 0 96 96" fill="white">
  <!-- Stage keyboard: slim rectangle, angled like reference (diagonal) with keys -->
  <g transform="translate(48,48) rotate(-15) translate(-48,-48)">
    <!-- Main body -->
    <rect x="4" y="30" width="88" height="36" rx="4"/>
    <!-- Black key strips as evenodd cutouts -->
    <path fill-rule="evenodd" d="
      M 4 48 L 92 48 L 92 66 L 4 66 Z
      M 12 48 L 17 48 L 17 59 L 12 59 Z
      M 22 48 L 27 48 L 27 59 L 22 59 Z
      M 36 48 L 41 48 L 41 59 L 36 59 Z
      M 46 48 L 51 48 L 51 59 L 46 59 Z
      M 56 48 L 61 48 L 61 59 L 56 59 Z
      M 70 48 L 75 48 L 75 59 L 70 59 Z
      M 80 48 L 85 48 L 85 59 L 80 59 Z
    "/>
  </g>
</svg>
