<svg xmlns="http://www.w3.org/2000/svg" viewBox="0 0 96 96" fill="white">
  <!-- IEM earbuds: two earpieces -->
  <!-- Left earpiece -->
  <path d="M 20 30 C 10 30 4 38 4 48 C 4 58 10 66 20 66 C 28 66 34 60 34 50 L 34 46 C 34 36 28 30 20 30 Z"/>
  <!-- Right earpiece -->
  <path d="M 76 30 C 86 30 92 38 92 48 C 92 58 86 66 76 66 C 68 66 62 60 62 50 L 62 46 C 62 36 68 30 76 30 Z"/>
  <!-- Cable connecting them -->
  <path d="M 34 48 C 40 48 44 44 48 44 C 52 44 56 48 62 48" stroke="white" stroke-width="4" fill="none"/>
  <!-- Ear tips (small circles) -->
  <circle fill="#1a1a1a" cx="20" cy="48" r="6"/>
  <circle fill="#1a1a1a" cx="76" cy="48" r="6"/>
</svg>
