<svg xmlns="http://www.w3.org/2000/svg" viewBox="0 0 96 96" fill="white">
  <!-- Baby grand: same profile, shorter body -->
  <path d="
    M 4 88 L 4 24 L 26 24
    C 40 24 58 28 70 38
    C 82 48 88 62 84 72
    C 80 82 70 88 56 88 Z
  "/>
  <path fill-rule="evenodd" d="
    M 4 78 L 84 78 L 84 88 L 4 88 Z
    M 13 78 L 15 78 L 15 86 L 13 86 Z
    M 21 78 L 23 78 L 23 86 L 21 86 Z
    M 29 78 L 31 78 L 31 86 L 29 86 Z
    M 38 78 L 40 78 L 40 86 L 38 86 Z
    M 46 78 L 48 78 L 48 86 L 46 86 Z
    M 55 78 L 57 78 L 57 86 L 55 86 Z
    M 63 78 L 65 78 L 65 86 L 63 86 Z
    M 71 78 L 73 78 L 73 86 L 71 86 Z
  "/>
</svg>
