<svg xmlns="http://www.w3.org/2000/svg" viewBox="0 0 96 96" fill="white">
  <!-- Grand piano: iconic wing silhouette, front-left perspective (matches reference) -->
  <!-- Body: curved tail shape — the classic grand piano profile -->
  <path d="
    M 4 88 L 4 18 L 28 18
    C 40 18 60 22 74 34
    C 86 44 92 58 88 70
    C 84 80 74 88 60 88 Z
  "/>
  <!-- Keyboard strip across the bottom (slightly inset) -->
  <path fill-rule="evenodd" d="
    M 4 76 L 88 76 L 88 88 L 4 88 Z
    M 14 76 L 16 76 L 16 84 L 14 84 Z
    M 22 76 L 24 76 L 24 84 L 22 84 Z
    M 30 76 L 32 76 L 32 84 L 30 84 Z
    M 40 76 L 42 76 L 42 84 L 40 84 Z
    M 48 76 L 50 76 L 50 84 L 48 84 Z
    M 58 76 L 60 76 L 60 84 L 58 84 Z
    M 66 76 L 68 76 L 68 84 L 66 84 Z
    M 74 76 L 76 76 L 76 84 L 74 84 Z
  "/>
</svg>
