<svg xmlns="http://www.w3.org/2000/svg" viewBox="0 0 96 96" fill="white">
  <!-- Upright piano: rectangular body + keyboard at bottom -->
  <rect x="6" y="4" width="84" height="92" rx="3"/>
  <!-- Black key strips as evenodd cutouts in keyboard area -->
  <path fill-rule="evenodd" d="
    M 6 72 L 90 72 L 90 96 L 6 96 Z
    M 16 72 L 20 72 L 20 83 L 16 83 Z
    M 26 72 L 30 72 L 30 83 L 26 83 Z
    M 40 72 L 44 72 L 44 83 L 40 83 Z
    M 50 72 L 54 72 L 54 83 L 50 83 Z
    M 60 72 L 64 72 L 64 83 L 60 83 Z
    M 74 72 L 78 72 L 78 83 L 74 83 Z
  "/>
</svg>
