<svg xmlns="http://www.w3.org/2000/svg" viewBox="0 0 96 96" fill="white">
  <!-- Grand piano: iconic side profile (front-left view) -->
  <!-- Main body: curved tail shape -->
  <path d="
    M 4 72 L 4 86 L 92 86 L 92 72
    C 92 60 80 38 60 28 C 50 22 36 20 28 20
    L 4 20 L 4 62
    C 8 56 16 52 24 52 C 36 52 44 60 44 70 L 44 72 Z
  "/>
  <!-- Keyboard strip (slightly inset from body edge) -->
  <rect x="4" y="72" width="88" height="14" rx="1"/>
  <!-- Black keys as cutouts -->
  <rect fill="#1a1a1a" x="14" y="72" width="6" height="9" rx="1"/>
  <rect fill="#1a1a1a" x="24" y="72" width="6" height="9" rx="1"/>
  <rect fill="#1a1a1a" x="39" y="72" width="6" height="9" rx="1"/>
  <rect fill="#1a1a1a" x="49" y="72" width="6" height="9" rx="1"/>
  <rect fill="#1a1a1a" x="59" y="72" width="6" height="9" rx="1"/>
  <rect fill="#1a1a1a" x="73" y="72" width="6" height="9" rx="1"/>
  <rect fill="#1a1a1a" x="83" y="72" width="6" height="9" rx="1"/>
</svg>
