<svg xmlns="http://www.w3.org/2000/svg" viewBox="0 0 96 96" fill="white">
  <!-- Saxophone: J-curve silhouette, recognizable body shape -->
  <!-- Main body (curved tube) -->
  <path d="
    M 48 4 C 56 4 64 8 68 16 C 72 24 72 36 70 48
    C 68 58 64 66 58 72 C 52 78 44 82 38 84
    C 32 86 26 86 22 82 C 14 76 14 64 20 56
    C 24 50 32 46 38 48 C 44 50 46 56 44 62
    C 42 68 36 70 32 68 C 28 66 28 60 30 56 C 32 52 36 50 40 52
    L 40 50 C 34 48 26 52 22 60 C 18 68 20 78 26 82
    C 32 86 40 84 46 80 C 54 74 60 64 64 54
    C 68 44 70 32 68 22 C 66 12 60 6 52 4 Z
  "/>
  <!-- Bell (wider flare at bottom-left) -->
  <ellipse cx="26" cy="82" rx="14" ry="8" transform="rotate(-30 26 82)"/>
  <!-- Mouthpiece at top -->
  <rect x="44" y="2" width="8" height="12" rx="3"/>
</svg>
