<svg xmlns="http://www.w3.org/2000/svg" viewBox="0 0 96 96" fill="white">
  <!-- Saxophone: clean S-curve silhouette (matches reference) -->
  <path d="
    M 54 4 C 62 4 70 10 72 18 C 74 26 72 36 68 46
    C 64 56 58 64 52 70 C 46 76 40 80 36 82
    C 32 84 26 84 22 80 C 16 74 16 64 22 56
    C 26 50 34 46 40 48 C 46 50 48 58 44 64
    C 40 70 32 70 28 64
    L 26 60
    C 30 66 36 68 40 64 C 44 60 44 52 40 48
    C 36 44 28 46 24 52 C 18 58 18 70 24 78
    C 30 84 40 84 46 80 C 54 74 62 64 68 52
    C 72 42 76 30 74 18 C 72 6 62 2 54 4 Z
  "/>
  <!-- Bell flare at bottom -->
  <path d="M 18 78 C 10 82 6 88 10 92 C 14 96 22 94 28 90 C 22 86 18 82 18 78 Z"/>
  <!-- Mouthpiece -->
  <rect x="50" y="2" width="10" height="14" rx="4"/>
</svg>
