<?xml version="1.0" encoding="UTF-8"?>
<!DOCTYPE svg PUBLIC "-//W3C//DTD SVG 1.1//EN" "http://www.w3.org/Graphics/SVG/1.1/DTD/svg11.dtd">
<svg version="1.1" xmlns="http://www.w3.org/2000/svg" xmlns:xlink="http://www.w3.org/1999/xlink" x="0" y="0" width="286" height="329" viewBox="0, 0, 286, 329">
  <g id="Layer_1">
    <g>
      <path d="M284.465,328 L1,328 C1,328 1,178.864 1,90.584 C1,7.871 99.21,-26.544 157.992,26.072 C195.088,59.276 182.782,106.781 203.866,133.109 C224.948,159.436 284.465,189.456 284.465,255.322 C284.465,256.071 284.465,328 284.465,328" fill="#1A1919"/>
      <path d="M284.465,328 L1,328 C1,328 1,178.864 1,90.584 C1,7.871 99.21,-26.544 157.992,26.072 C195.088,59.276 182.782,106.781 203.866,133.109 C224.948,159.436 284.465,189.456 284.465,255.322 C284.465,256.071 284.465,328 284.465,328 z" fill-opacity="0" stroke="#1A1919" stroke-width="2"/>
    </g>
    <path d="M1.842,289.669 L10.422,289.669 L10.422,327.154 L1.842,327.154 z" fill="#FFFFFE"/>
    <path d="M11.288,289.669 L19.773,289.669 L19.773,327.154 L11.288,327.154 z" fill="#FFFFFE"/>
    <path d="M20.708,289.669 L29.193,289.669 L29.193,327.154 L20.708,327.154 z" fill="#FFFFFE"/>
    <path d="M30.128,289.669 L38.613,289.669 L38.613,327.154 L30.128,327.154 z" fill="#FFFFFE"/>
    <path d="M39.607,289.669 L48.092,289.669 L48.092,327.154 L39.607,327.154 z" fill="#FFFFFE"/>
    <path d="M48.968,289.669 L57.453,289.669 L57.453,327.154 L48.968,327.154 z" fill="#FFFFFE"/>
    <path d="M58.387,289.669 L66.872,289.669 L66.872,327.154 L58.387,327.154 z" fill="#FFFFFE"/>
    <path d="M67.805,289.669 L76.29,289.669 L76.29,327.154 L67.805,327.154 z" fill="#FFFFFE"/>
    <path d="M77.248,289.669 L85.733,289.669 L85.733,327.154 L77.248,327.154 z" fill="#FFFFFE"/>
    <path d="M86.609,289.669 L95.094,289.669 L95.094,327.154 L86.609,327.154 z" fill="#FFFFFE"/>
    <path d="M96.065,289.669 L104.55,289.669 L104.55,327.154 L96.065,327.154 z" fill="#FFFFFE"/>
    <path d="M105.531,289.669 L114.016,289.669 L114.016,327.154 L105.531,327.154 z" fill="#FFFFFE"/>
    <path d="M114.92,289.669 L123.405,289.669 L123.405,327.154 L114.92,327.154 z" fill="#FFFFFE"/>
    <path d="M124.314,289.669 L132.799,289.669 L132.799,327.154 L124.314,327.154 z" fill="#FFFFFE"/>
    <path d="M133.747,289.669 L142.231,289.669 L142.231,327.154 L133.747,327.154 z" fill="#FFFFFE"/>
    <path d="M143.149,289.669 L151.634,289.669 L151.634,327.154 L143.149,327.154 z" fill="#FFFFFE"/>
    <path d="M152.585,289.669 L161.069,289.669 L161.069,327.154 L152.585,327.154 z" fill="#FFFFFE"/>
    <path d="M162.005,289.669 L170.489,289.669 L170.489,327.154 L162.005,327.154 z" fill="#FFFFFE"/>
    <path d="M171.429,289.669 L179.913,289.669 L179.913,327.154 L171.429,327.154 z" fill="#FFFFFE"/>
    <path d="M180.845,289.669 L189.329,289.669 L189.329,327.154 L180.845,327.154 z" fill="#FFFFFE"/>
    <path d="M190.264,289.669 L198.749,289.669 L198.749,327.154 L190.264,327.154 z" fill="#FFFFFE"/>
    <path d="M199.688,289.669 L208.173,289.669 L208.173,327.154 L199.688,327.154 z" fill="#FFFFFE"/>
    <path d="M209.104,289.669 L217.59,289.669 L217.59,327.154 L209.104,327.154 z" fill="#FFFFFE"/>
    <path d="M218.548,289.669 L227.032,289.669 L227.032,327.154 L218.548,327.154 z" fill="#FFFFFE"/>
    <path d="M227.946,289.669 L236.431,289.669 L236.431,327.154 L227.946,327.154 z" fill="#FFFFFE"/>
    <path d="M237.334,289.669 L245.819,289.669 L245.819,327.154 L237.334,327.154 z" fill="#FFFFFE"/>
    <path d="M246.84,289.669 L255.325,289.669 L255.325,327.154 L246.84,327.154 z" fill="#FFFFFE"/>
    <path d="M256.206,289.669 L264.69,289.669 L264.69,327.154 L256.206,327.154 z" fill="#FFFFFE"/>
    <path d="M265.614,289.669 L274.099,289.669 L274.099,327.154 L265.614,327.154 z" fill="#FFFFFE"/>
    <path d="M275.008,289.669 L283.618,289.669 L283.618,327.154 L275.008,327.154 z" fill="#FFFFFE"/>
    <path d="M8.264,288.912 L12.801,288.912 L12.801,314.083 L8.264,314.083 z" fill="#1A1919"/>
    <path d="M27.32,288.912 L31.86,288.912 L31.86,314.083 L27.32,314.083 z" fill="#1A1919"/>
    <path d="M36.699,288.912 L41.238,288.912 L41.238,314.083 L36.699,314.083 z" fill="#1A1919"/>
    <path d="M55.456,288.912 L59.994,288.912 L59.994,314.083 L55.456,314.083 z" fill="#1A1919"/>
    <path d="M64.833,288.912 L69.371,288.912 L69.371,314.083 L64.833,314.083 z" fill="#1A1919"/>
    <path d="M74.214,288.912 L78.75,288.912 L78.75,314.083 L74.214,314.083 z" fill="#1A1919"/>
    <path d="M93.271,288.912 L97.809,288.912 L97.809,314.083 L93.271,314.083 z" fill="#1A1919"/>
    <path d="M102.65,288.912 L107.187,288.912 L107.187,314.083 L102.65,314.083 z" fill="#1A1919"/>
    <path d="M121.407,288.912 L125.944,288.912 L125.944,314.083 L121.407,314.083 z" fill="#1A1919"/>
    <path d="M130.783,288.912 L135.323,288.912 L135.323,314.083 L130.783,314.083 z" fill="#1A1919"/>
    <path d="M140.163,288.912 L144.699,288.912 L144.699,314.083 L140.163,314.083 z" fill="#1A1919"/>
    <path d="M159.216,288.912 L163.76,288.912 L163.76,314.083 L159.216,314.083 z" fill="#1A1919"/>
    <path d="M168.296,288.912 L172.831,288.912 L172.831,314.083 L168.296,314.083 z" fill="#1A1919"/>
    <path d="M187.356,288.912 L191.892,288.912 L191.892,314.083 L187.356,314.083 z" fill="#1A1919"/>
    <path d="M196.731,288.912 L201.271,288.912 L201.271,314.083 L196.731,314.083 z" fill="#1A1919"/>
    <path d="M206.109,288.912 L210.647,288.912 L210.647,314.083 L206.109,314.083 z" fill="#1A1919"/>
    <path d="M225.168,288.912 L229.71,288.912 L229.71,314.083 L225.168,314.083 z" fill="#1A1919"/>
    <path d="M234.548,288.912 L239.084,288.912 L239.084,314.083 L234.548,314.083 z" fill="#1A1919"/>
    <path d="M253.306,288.912 L257.843,288.912 L257.843,314.083 L253.306,314.083 z" fill="#1A1919"/>
    <path d="M262.683,288.912 L267.22,288.912 L267.22,314.083 L262.683,314.083 z" fill="#1A1919"/>
    <path d="M272.364,288.912 L276.901,288.912 L276.901,314.083 L272.364,314.083 z" fill="#1A1919"/>
  </g>
</svg>
